<svg data-v-fde0c5aa="" xmlns="http://www.w3.org/2000/svg" viewBox="0 0 300 300" class="icon"><!----><defs data-v-fde0c5aa=""><!----></defs><rect data-v-fde0c5aa="" fill="transparent" x="0" y="0" width="300px" height="300px" class="logo-background-square"></rect><!----><defs data-v-fde0c5aa=""><linearGradient data-v-fde0c5aa="" gradientTransform="rotate(25)" id="0cf8961f-060a-4652-a0c6-36363c4303a8" x1="0%" y1="0%" x2="100%" y2="0%"><stop data-v-fde0c5aa="" offset="0%" stop-color="#920DE9" stop-opacity="1"></stop><stop data-v-fde0c5aa="" offset="100%" stop-color="#1536F1" stop-opacity="1"></stop></linearGradient></defs><g data-v-fde0c5aa="" id="9ef661f6-b3c2-44b8-a13d-f3ee9daadb27" fill="url(#0cf8961f-060a-4652-a0c6-36363c4303a8)" stroke="none" transform="matrix(1.9999273153191843,0,0,1.9999273153191843,-106.0026893331902,-105.99068110262107)"><path d="M73.004 79.427c0-3.555 2.881-6.427 6.428-6.427s6.426 2.872 6.426 6.427c0 3.545-2.879 6.427-6.426 6.427s-6.428-2.882-6.428-6.427zM92.432 79.427A6.427 6.427 0 0 1 98.865 73a6.417 6.417 0 0 1 6.417 6.427c0 3.545-2.87 6.427-6.417 6.427a6.433 6.433 0 0 1-6.433-6.427zM73.004 98.86c0-3.555 2.881-6.435 6.428-6.435s6.426 2.88 6.426 6.435c0 3.536-2.879 6.415-6.426 6.415s-6.428-2.879-6.428-6.415zM92.432 98.86a6.434 6.434 0 0 1 6.433-6.435c3.547 0 6.417 2.88 6.417 6.435a6.419 6.419 0 0 1-6.417 6.415c-3.553 0-6.433-2.879-6.433-6.415zM73.004 118.292c0-3.563 2.881-6.426 6.428-6.426s6.426 2.862 6.426 6.426c0 3.545-2.879 6.417-6.426 6.417s-6.428-2.872-6.428-6.417zM92.432 118.292a6.421 6.421 0 0 1 6.433-6.426 6.41 6.41 0 0 1 6.417 6.426 6.414 6.414 0 0 1-6.417 6.417c-3.553 0-6.433-2.872-6.433-6.417zM73.004 137.707c0-3.545 2.881-6.417 6.428-6.417s6.426 2.872 6.426 6.417c0 3.564-2.879 6.426-6.426 6.426s-6.428-2.862-6.428-6.426zM92.432 137.707c0-3.545 2.881-6.417 6.433-6.417a6.414 6.414 0 0 1 6.417 6.417 6.41 6.41 0 0 1-6.417 6.426 6.42 6.42 0 0 1-6.433-6.426zM111.871 79.427A6.42 6.42 0 0 1 118.297 73a6.416 6.416 0 0 1 6.416 6.427c0 3.545-2.869 6.427-6.416 6.427a6.426 6.426 0 0 1-6.426-6.427zM131.298 79.427A6.417 6.417 0 0 1 137.715 73a6.421 6.421 0 0 1 6.426 6.427 6.427 6.427 0 0 1-6.426 6.427c-3.547 0-6.417-2.882-6.417-6.427zM150.73 79.427A6.417 6.417 0 0 1 157.147 73a6.427 6.427 0 0 1 6.433 6.427 6.433 6.433 0 0 1-6.433 6.427c-3.546 0-6.417-2.882-6.417-6.427zM170.154 79.427c0-3.555 2.879-6.427 6.426-6.427a6.426 6.426 0 1 1 0 12.854 6.43 6.43 0 0 1-6.426-6.427zM111.871 98.86a6.427 6.427 0 0 1 6.426-6.435c3.547 0 6.416 2.88 6.416 6.435a6.418 6.418 0 0 1-6.416 6.415 6.422 6.422 0 0 1-6.426-6.415zM131.298 98.86c0-3.555 2.87-6.435 6.417-6.435a6.428 6.428 0 0 1 6.426 6.435c0 3.536-2.874 6.415-6.426 6.415a6.419 6.419 0 0 1-6.417-6.415zM150.73 98.86c0-3.555 2.87-6.435 6.417-6.435a6.434 6.434 0 0 1 6.433 6.435c0 3.536-2.881 6.415-6.433 6.415a6.42 6.42 0 0 1-6.417-6.415zM170.154 98.86c0-3.555 2.879-6.435 6.426-6.435s6.428 2.88 6.428 6.435c0 3.536-2.881 6.415-6.428 6.415s-6.426-2.879-6.426-6.415zM150.73 118.292a6.41 6.41 0 0 1 6.417-6.426 6.42 6.42 0 1 1 0 12.843 6.415 6.415 0 0 1-6.417-6.417zM170.154 118.292c0-3.563 2.879-6.426 6.426-6.426s6.428 2.862 6.428 6.426c0 3.545-2.881 6.417-6.428 6.417s-6.426-2.872-6.426-6.417zM150.73 137.707a6.414 6.414 0 0 1 6.417-6.417 6.42 6.42 0 1 1 0 12.843 6.41 6.41 0 0 1-6.417-6.426zM170.154 137.707c0-3.545 2.879-6.417 6.426-6.417s6.428 2.872 6.428 6.417c0 3.564-2.881 6.426-6.428 6.426s-6.426-2.862-6.426-6.426zM73.004 157.133c0-3.536 2.881-6.41 6.428-6.41s6.426 2.874 6.426 6.41a6.427 6.427 0 1 1-12.854 0zM92.432 157.133c0-3.536 2.881-6.41 6.433-6.41a6.414 6.414 0 0 1 6.417 6.41c0 3.561-2.87 6.435-6.417 6.435a6.43 6.43 0 0 1-6.433-6.435zM73.004 176.572c0-3.545 2.881-6.433 6.428-6.433s6.426 2.888 6.426 6.433c0 3.549-2.879 6.428-6.426 6.428s-6.428-2.879-6.428-6.428zM92.432 176.572a6.439 6.439 0 0 1 6.433-6.433c3.547 0 6.417 2.888 6.417 6.433 0 3.549-2.87 6.428-6.417 6.428a6.431 6.431 0 0 1-6.433-6.428zM111.871 157.133c0-3.536 2.872-6.41 6.426-6.41a6.413 6.413 0 0 1 6.416 6.41c0 3.561-2.869 6.435-6.416 6.435a6.424 6.424 0 0 1-6.426-6.435zM131.298 157.133c0-3.536 2.87-6.41 6.417-6.41 3.552 0 6.426 2.874 6.426 6.41a6.42 6.42 0 1 1-12.843 0zM150.73 157.133c0-3.536 2.87-6.41 6.417-6.41 3.552 0 6.433 2.874 6.433 6.41a6.43 6.43 0 0 1-6.433 6.435 6.422 6.422 0 0 1-6.417-6.435zM170.154 157.133c0-3.536 2.879-6.41 6.426-6.41s6.428 2.874 6.428 6.41a6.428 6.428 0 0 1-12.854 0zM111.871 176.572c0-3.545 2.872-6.433 6.426-6.433 3.547 0 6.416 2.888 6.416 6.433 0 3.549-2.869 6.428-6.416 6.428a6.424 6.424 0 0 1-6.426-6.428zM131.298 176.572c0-3.545 2.87-6.433 6.417-6.433 3.552 0 6.426 2.888 6.426 6.433a6.426 6.426 0 0 1-6.426 6.428c-3.547 0-6.417-2.879-6.417-6.428zM150.73 176.572c0-3.545 2.87-6.433 6.417-6.433a6.439 6.439 0 0 1 6.433 6.433 6.432 6.432 0 0 1-6.433 6.428c-3.546 0-6.417-2.879-6.417-6.428zM170.154 176.572c0-3.545 2.879-6.433 6.426-6.433s6.428 2.888 6.428 6.433c0 3.549-2.881 6.428-6.428 6.428s-6.426-2.879-6.426-6.428z"></path></g><!----></svg>